<?xml version="1.0" standalone="no"?>
<!DOCTYPE svg PUBLIC "-//W3C//DTD SVG 1.1//EN" "http://www.w3.org/Graphics/SVG/1.1/DTD/svg11.dtd" >
<svg xmlns="http://www.w3.org/2000/svg">
<metadata>Generated by IcoMoon</metadata>
<defs>
<font id="icomoon" horiz-adv-x="1024">
<font-face units-per-em="1024" ascent="960" descent="-64" />
<missing-glyph horiz-adv-x="1024" />
<glyph unicode="&#x20;" horiz-adv-x="512" d="" />
<glyph unicode="&#xe900;" glyph-name="professionals" d="M512 957.6c-282.4 0-512-228-512-509.6s229.6-509.6 512-509.6c282.4 0 512 228 512 509.6s-229.6 509.6-512 509.6zM512-10.4c-254.4 0-460.8 204.8-460.8 458.4s206.4 458.4 460.8 458.4c254.4 0 460.8-205.6 460.8-458.4 0-253.6-206.4-458.4-460.8-458.4zM697.6 604c-7.2 7.2-18.4 7.2-25.6 0l-230.4-229.6-110.4 109.6c-7.2 7.2-18.4 7.2-25.6 0l-38.4-38.4c-7.2-7.2-7.2-18.4 0-25.6l122.4-122.4c0 0 0 0 0 0l38.4-38.4c7.2-7.2 18.4-7.2 25.6 0l282.4 280.8c7.2 7.2 7.2 18.4 0 25.6l-38.4 38.4z" />
<glyph unicode="&#xe901;" glyph-name="graphic-design" d="M628.364 250.182h-232.727c-12.853 0-23.273-10.42-23.273-23.273v0-23.273h279.273v23.273c0 12.853-10.42 23.273-23.273 23.273v0zM372.364 157.091c0-12.853 10.42-23.273 23.273-23.273v0h232.727c12.853 0 23.273 10.42 23.273 23.273v0 23.273h-279.273zM512 40.727c38.547 0.032 69.786 31.271 69.818 69.815v0.003h-139.636c0.032-38.547 31.271-69.786 69.815-69.818h0.003zM1010.269 571.113c-128 180.596-308.596 284.16-495.476 284.16h-5.585c-186.88 0-367.476-103.564-495.476-284.16-1.311-1.887-2.095-4.227-2.095-6.749s0.784-4.862 2.12-6.788l-0.026 0.039c109.847-155.113 258.676-253.091 416.815-277.76v104.262c-69.189 31.818-116.364 100.535-116.364 180.27 0 109.252 88.566 197.818 197.818 197.818s197.818-88.566 197.818-197.818c0-79.735-47.174-148.451-115.135-179.762l-1.229-0.508v-104.262c158.138 24.669 306.851 122.647 416.815 277.76 1.311 1.887 2.095 4.227 2.095 6.749s-0.784 4.862-2.12 6.788l0.026-0.039zM634.182 352.815c-1.67-0.976-3.677-1.553-5.818-1.553-6.449 0-11.676 5.228-11.676 11.676 0 4.307 2.332 8.070 5.803 10.094l0.055 0.030c66.552 38.939 110.545 110.067 110.545 191.47 0 122.105-98.986 221.091-221.091 221.091s-221.091-98.986-221.091-221.091c0-81.403 43.994-152.532 109.502-190.906l1.043-0.565c3.526-2.054 5.858-5.816 5.858-10.124 0-6.449-5.228-11.676-11.676-11.676-2.141 0-4.148 0.576-5.874 1.583l0.055-0.030c-73.557 43.038-122.182 121.653-122.182 211.625 0 134.958 109.405 244.364 244.364 244.364s244.364-109.405 244.364-244.364c0-89.972-48.625-168.588-121.029-211.001l-1.153-0.624zM546.909 273.455h23.273v118.342c0 0.004 0 0.008 0 0.012 0 4.844 2.943 9.001 7.138 10.781l0.077 0.029c64.543 26.588 109.149 89.001 109.149 161.831 0 96.399-78.147 174.545-174.545 174.545s-174.545-78.147-174.545-174.545c0-72.831 44.606-135.243 107.989-161.408l1.16-0.424c4.272-1.808 7.215-5.965 7.215-10.809 0-0.004 0-0.009 0-0.013v0.001-118.342h23.273v209.455h-23.273c-25.706 0-46.545 20.839-46.545 46.545s20.839 46.545 46.545 46.545c25.706 0 46.545-20.839 46.545-46.545v0-23.273h23.273v23.273c0 25.706 20.839 46.545 46.545 46.545s46.545-20.839 46.545-46.545c0-25.706-20.839-46.545-46.545-46.545v0h-23.273zM500.364 482.909h23.273v-209.455h-23.273v209.455zM430.545 529.455c0.013-12.848 10.425-23.259 23.271-23.273h23.274v23.273c0 12.853-10.42 23.273-23.273 23.273s-23.273-10.42-23.273-23.273v0zM593.455 529.455c0 12.853-10.42 23.273-23.273 23.273s-23.273-10.42-23.273-23.273v0-23.273h23.273c12.847 0.015 23.257 10.426 23.273 23.271v0.001z" />
<glyph unicode="&#xe902;" d="M48 880h800c26.51 0 48-21.49 48-48v-624c0-26.51-21.49-48-48-48h-800c-26.51 0-48 21.49-48 48v624c0 26.51 21.49 48 48 48z" />
<glyph unicode="&#xe903;" d="M864 832v-576h-832v576c0 8.837 7.163 16 16 16v0h800c8.837 0 16-7.163 16-16v0z" />
<glyph unicode="&#xe904;" d="M560 32h-224l16 128h192l16-128z" />
<glyph unicode="&#xe905;" d="M624 16h-352c-8.837 0-16 7.163-16 16s7.163 16 16 16v0h352c8.837 0 16-7.163 16-16s-7.163-16-16-16v0z" />
<glyph unicode="&#xe906;" d="M32 320h640v-64h-640v64z" />
<glyph unicode="&#xe907;" d="M896 592v-384c0-26.51-21.49-48-48-48v0h-208v96h224v336z" />
<glyph unicode="&#xe908;" d="M864 592v-336h-192v64h-32v176c0 53.019 42.981 96 96 96v0z" />
<glyph unicode="&#xe909;" d="M640 320h32v-64h-32v64z" />
<glyph unicode="&#xe90a;" d="M736 560h224c35.346 0 64-28.654 64-64v-416c0-35.346-28.654-64-64-64h-224c-35.346 0-64 28.654-64 64v416c0 35.346 28.654 64 64 64z" />
<glyph unicode="&#xe90b;" d="M992 496v-416c0-17.673-14.327-32-32-32v0h-224c-17.673 0-32 14.327-32 32v0 416c0 17.673 14.327 32 32 32v0c22.4 0 32 1.92 36.48-8.8s8.32-23.2 21.44-23.2h108.16c0.033 0 0.072 0 0.111 0 6.211 0 11.595 3.539 14.247 8.71l0.042 0.090c12.8 26.4 9.6 23.2 43.52 23.2 17.673 0 32-14.327 32-32v0z" />
<glyph unicode="&#xe90c;" d="M128 688c-17.673 0-32 14.327-32 32v0 32c0 17.673 14.327 32 32 32s32-14.327 32-32v0-32c0-17.673-14.327-32-32-32v0z" />
<glyph unicode="&#xe90d;" d="M224 768l16 16v-96" />
<glyph unicode="&#xe90e;" d="M240 512c0-44.183-35.817-80-80-80s-80 35.817-80 80c0 44.183 35.817 80 80 80s80-35.817 80-80z" />
<glyph unicode="&#xe90f;" d="M227.2 468.48c-14.47-22.156-39.149-36.593-67.2-36.593s-52.73 14.437-67.012 36.287l-0.188 0.306c17.302 16.969 41.028 27.442 67.2 27.442s49.898-10.473 67.215-27.457l-0.015 0.015z" />
<glyph unicode="&#xe910;" d="M192 528c0-17.673-14.327-32-32-32s-32 14.327-32 32c0 17.673 14.327 32 32 32s32-14.327 32-32z" />
<glyph unicode="&#xe911;" d="M608 752h80v-80" />
<glyph unicode="&#xe912;" d="M864 384h80v-80" />
<glyph unicode="&#xe913;" d="M832 192h-80v80" />
<glyph unicode="&#xe914;" d="M352 496v-80l336 336" />
<glyph unicode="&#xe915;" d="M352 416h80" />
<glyph unicode="&#xe916;" d="M944 384l-192-192" />
<glyph unicode="&#xe917;" d="M992 608v16c0 17.673-14.327 32-32 32v0h-16c-8.837 0-16 7.163-16 16s7.163 16 16 16v0h16c35.346 0 64-28.654 64-64v0-16c0-8.837-7.163-16-16-16s-16 7.163-16 16v0z" />
<glyph unicode="&#xe918;" glyph-name="Logo-design" d="M641.112 129.592h-259.392v384.784h-139.904v259.368h539.2v-259.368h-139.904v-384.784zM413.72 161.592h195.392v384.784h139.904v195.368h-475.2v-195.368h139.904v-384.784zM0 773.768h42.896v-32h-42.896v32zM79.208 773.768h42.904v-32h-42.904v32zM158.392 773.768h42.912v-32h-42.912v32zM822.704 773.768h42.904v-32h-42.904v32zM901.888 773.768h42.904v-32h-42.904v32zM981.096 773.768h42.904v-32h-42.904v32zM609.112 931.592h32v-42.904h-32v42.904zM609.112 852.384h32v-42.912h-32v42.912zM381.72 931.592h32v-42.904h-32v42.904zM381.72 852.384h32v-42.912h-32v42.912zM609.112 86.512h32v-42.92h-32v42.92zM609.112 7.312h32v-42.904h-32v42.904zM381.72 86.512h32v-42.92h-32v42.92zM381.72 7.312h32v-42.904h-32v42.904zM0 546.376h42.896v-32h-42.896v32zM79.208 546.376h42.904v-32h-42.904v32zM158.392 546.376h42.912v-32h-42.912v32zM822.704 546.376h42.904v-32h-42.904v32zM901.888 546.376h42.904v-32h-42.904v32zM981.096 546.376h42.904v-32h-42.904v32z" />
<glyph unicode="&#xe919;" d="M794.453 353.707c-5.459 5.542-13.046 8.976-21.434 8.976-0.34 0-0.678-0.006-1.015-0.017l0.049 0.001h-213.333c-17.675-0.158-32.132-13.726-33.697-31.014l-0.010-0.132-13.013-149.333c-0.102-0.925-0.16-1.997-0.16-3.083 0-7.786 2.979-14.875 7.859-20.192l-0.020 0.022c5.508-5.915 13.34-9.602 22.033-9.602 0.129 0 0.258 0.001 0.386 0.002h213.313c17.969 0.072 32.659 14.018 33.914 31.678l0.006 0.109 13.013 149.333c0.083 0.839 0.131 1.814 0.131 2.8 0 7.908-3.051 15.103-8.041 20.472l0.017-0.019z" />
<glyph unicode="&#xe91a;" d="M355.413 256h-81.28c-18.833-0.142-34.261-14.533-36.042-32.918l-0.012-0.149-3.413-37.973c-0.088-0.896-0.139-1.936-0.139-2.988 0-8.399 3.214-16.047 8.48-21.782l-0.021 0.023c5.785-6.641 14.238-10.828 23.671-10.88h81.289c19.035 0.173 34.577 14.899 36.045 33.58l0.008 0.126 3.413 38.613c0.078 0.832 0.122 1.8 0.122 2.778 0 17.437-14.136 31.573-31.573 31.573-0.193 0-0.386-0.002-0.578-0.005h0.029z" />
<glyph unicode="&#xe91b;" d="M817.92 652.373l-44.8-8.96c-1.486 1.549-3.168 2.891-5.011 3.993l-0.109 0.060v88.533c0 5.891-4.776 10.667-10.667 10.667s-10.667-4.776-10.667-10.667v0-88.533c-6.106-3.824-10.107-10.515-10.107-18.141 0-11.585 9.235-21.014 20.745-21.325l0.029-0.001c9.189 0.166 16.946 6.116 19.795 14.357l0.045 0.15 45.013 8.96c4.91 0.92 8.577 5.174 8.577 10.284 0 0.816-0.094 1.611-0.271 2.374l0.014-0.071c-1.127 4.901-5.451 8.5-10.616 8.5-0.697 0-1.378-0.065-2.038-0.191l0.068 0.011z" />
<glyph unicode="&#xe91c;" d="M960 629.333c-0.206 92.858-62.698 171.064-147.903 195.069l-1.43 0.344v17.92c0 29.455-23.878 53.333-53.333 53.333s-53.333-23.878-53.333-53.333v0-10.667h-469.333c-6.35-0.042-12.432-1.132-18.1-3.106l0.394 0.119c-5.187-0.853-9.096-5.303-9.096-10.667 0-5.966 4.836-10.802 10.802-10.802 0.603 0 1.194 0.049 1.769 0.144l-0.063-0.009c0.513-0.107 1.103-0.168 1.707-0.168s1.194 0.061 1.763 0.178l-0.056-0.010c3.167 1.433 6.84 2.484 10.69 2.967l0.19 0.019h432.64c-57.653-29.202-98.941-83.512-109.704-148.148l-0.163-1.185h-337.067c-0.164-0.003-0.356-0.005-0.55-0.005-9.447 0-17.8 4.688-22.858 11.864l-0.059 0.088c-1.96 2.706-5.109 4.445-8.665 4.445-2.264 0-4.363-0.705-6.090-1.908l0.035 0.023c-2.834-1.9-4.674-5.090-4.674-8.71 0-2.251 0.712-4.336 1.922-6.042l-0.022 0.032c8.871-12.951 23.584-21.338 40.255-21.338 0.248 0 0.495 0.002 0.742 0.006h334.256c0-3.627 0-7.040 0-10.667 0.243-111.789 90.861-202.332 202.655-202.453h0.012c0.067 0 0.146 0 0.225 0 35.104 0 68.103 9.010 96.811 24.844l-1.036-0.524-29.013-332.8c-1.938-18.044-16.709-32.078-34.912-32.851l-0.075-0.003h-576c-0.189-0.005-0.411-0.007-0.634-0.007-8.157 0-15.509 3.442-20.685 8.952l-0.014 0.015c-4.548 5.099-7.327 11.862-7.327 19.273 0 0.725 0.027 1.444 0.079 2.155l-0.006-0.095 24.32 277.333c0.089 0.517 0.139 1.112 0.139 1.718 0 5.715-4.494 10.38-10.141 10.654l-0.025 0.001c-0.325 0.036-0.702 0.056-1.083 0.056-5.568 0-10.119-4.353-10.436-9.842l-0.001-0.028-24.32-277.333c-0.157-1.48-0.247-3.197-0.247-4.936 0-12.819 4.874-24.5 12.869-33.291l-0.036 0.040c8.936-9.857 21.789-16.022 36.082-16.022 0.515 0 1.028 0.008 1.539 0.024l-0.075-0.002h576c29.678 0.623 53.878 23.271 56.938 52.226l0.022 0.254 30.507 349.013c50.677 37.246 83.2 96.627 83.2 163.603 0 0.083 0 0.166 0 0.25v-0.013zM725.333 842.667c0 17.673 14.327 32 32 32s32-14.327 32-32v0-13.44c-9.584 1.705-20.652 2.711-31.943 2.773h-32.057zM757.333 448c-100.148 0-181.333 81.186-181.333 181.333s81.186 181.333 181.333 181.333c100.148 0 181.333-81.186 181.333-181.333v0c-0.121-100.099-81.235-181.212-181.322-181.333h-0.012z" />
<glyph unicode="&#xe91d;" d="M723.84 277.333c5.891 0 10.667 4.776 10.667 10.667s-4.776 10.667-10.667 10.667v0h-128c-5.891 0-10.667-4.776-10.667-10.667s4.776-10.667 10.667-10.667v0z" />
<glyph unicode="&#xe91e;" d="M579.627 224c0-5.891 4.776-10.667 10.667-10.667v0h64c5.891 0 10.667 4.776 10.667 10.667s-4.776 10.667-10.667 10.667v0h-64c-5.891 0-10.667-4.776-10.667-10.667v0z" />
<glyph unicode="&#xe91f;" d="M485.973 373.333c0 5.891-4.776 10.667-10.667 10.667v0h-213.333c-5.891 0-10.667-4.776-10.667-10.667s4.776-10.667 10.667-10.667v0h213.333c5.891 0 10.667 4.776 10.667 10.667v0z" />
<glyph unicode="&#xe920;" d="M256 320c-5.891 0-10.667-4.776-10.667-10.667s4.776-10.667 10.667-10.667v0h170.667c5.891 0 10.667 4.776 10.667 10.667s-4.776 10.667-10.667 10.667v0z" />
<glyph unicode="&#xe921;" d="M74.667 704h192c5.891 0 10.667 4.776 10.667 10.667s-4.776 10.667-10.667 10.667v0h-192c-5.891 0-10.667-4.776-10.667-10.667s4.776-10.667 10.667-10.667v0z" />
<glyph unicode="&#xe922;" d="M309.333 618.667h-170.667c-5.891 0-10.667-4.776-10.667-10.667s4.776-10.667 10.667-10.667v0h170.667c5.891 0 10.667 4.776 10.667 10.667s-4.776 10.667-10.667 10.667v0z" />
<glyph unicode="&#xe923;" d="M256 437.333c0 5.891-4.776 10.667-10.667 10.667v0h-170.667c-5.891 0-10.667-4.776-10.667-10.667s4.776-10.667 10.667-10.667v0h170.667c5.891 0 10.667 4.776 10.667 10.667v0z" />
<glyph unicode="&#xe924;" d="M96 554.667c-5.891 0-10.667-4.776-10.667-10.667s4.776-10.667 10.667-10.667v0h64c5.891 0 10.667 4.776 10.667 10.667s-4.776 10.667-10.667 10.667v0z" />
<glyph unicode="&#xe925;" d="M117.333 768h106.667c5.891 0 10.667 4.776 10.667 10.667s-4.776 10.667-10.667 10.667v0h-106.667c-5.891 0-10.667-4.776-10.667-10.667s4.776-10.667 10.667-10.667v0z" />
<glyph unicode="&#xe926;" d="M203.093 576l-8.747-101.76c-0.024-0.271-0.038-0.585-0.038-0.903 0-5.529 4.207-10.075 9.594-10.613l0.045-0.004c0.010 0 0.022 0 0.034 0 5.591 0 10.177 4.301 10.63 9.775l0.003 0.039 8.96 101.547c0.023 0.265 0.037 0.573 0.037 0.885 0 5.604-4.321 10.198-9.813 10.633l-0.037 0.002c-0.133 0.006-0.289 0.010-0.446 0.010-5.434 0-9.879-4.232-10.219-9.58l-0.002-0.030z" />
<glyph unicode="&#xe927;" d="M704 825.173v6.827h-298.667c-5.565-0.085-10.112-4.336-10.663-9.767l-0.004-0.046-18.133-208c-0.083-0.842-0.13-1.82-0.13-2.809 0-13.58 8.936-25.074 21.249-28.92l0.215-0.058c3.775-1.313 8.126-2.072 12.654-2.072 13.701 0 25.78 6.944 32.91 17.504l0.090 0.141c9.173 14.507 16.64 21.333 24.96 21.333 12.764-0.395 23.825-7.326 29.989-17.544l0.091-0.163c10.191-15.49 27.488-25.579 47.144-25.6h0.003c5.62 0.009 11.055 0.787 16.21 2.235l-0.424-0.102c-4.446 15.778-7.002 33.897-7.002 52.614 0 92.734 62.746 170.813 148.098 194.098l1.41 0.328z" />
<glyph unicode="&#xe928;" glyph-name="IOT" d="M505.12 276.88l-16.56-47.76c-2.046 1.079-4.515 2.16-7.065 3.070l-0.415 0.13c-2.047 0.723-4.609 1.427-7.231 1.969l-0.409 0.071 15.64 45.040c5.28-1.040 10.6-1.92 16.040-2.52zM514.4 202.8c-5.612 11.432-14.538 20.513-25.517 26.169l-0.323 0.151c-2.046 1.079-4.515 2.16-7.065 3.070l-0.415 0.13c-2.047 0.723-4.609 1.427-7.231 1.969l-0.409 0.071c-3.35 0.712-7.2 1.12-11.145 1.12-0.048 0-0.095 0-0.143 0h0.007c0 0 0 0-0.001 0-32.165 0-58.24-26.075-58.24-58.24 0-25.346 16.19-46.91 38.793-54.914l0.408-0.126c5.621-1.986 12.102-3.133 18.852-3.133 32.187 0 58.28 26.093 58.28 58.28 0 9.261-2.16 18.018-6.004 25.794l0.152-0.341zM501.96 163.52c-5.886-16.682-21.516-28.422-39.887-28.422-23.306 0-42.2 18.894-42.2 42.2s18.894 42.2 42.2 42.2c2.091 0 4.146-0.152 6.156-0.446l-0.228 0.027c2.907-0.417 5.511-1.073 8.001-1.968l-0.281 0.088c2.854-0.976 5.298-2.098 7.606-3.43l-0.206 0.11c12.663-7.461 21.025-21.029 21.025-36.549 0-4.932-0.844-9.666-2.396-14.067l0.091 0.296zM362.6 371.16c0.32-0.56 0.64-1.16 1-1.72l0.24 1zM714.48 458.36v0c0 1.52 0 3.040 0 4.6v1.040c0 0.76 0 1.56 0 2.32 4 4.24 8 8.52 11.32 12.72 22.36 27.48 31.2 54.44 22.080 76.28-10.16 24.32-40.56 38.12-85.72 38.88-4.32 4.48-8.8 8.72-13.52 12.76s-8.36 6.88-12.8 10.040c-0.92 0.68-1.88 1.36-2.88 2 1.080 29.24-6.040 50.88-22.16 60.64-17.040 10.32-52.36 4-87.68-27.4v0c-28.238-0.447-54.82-7.083-78.594-18.607l1.114 0.487c-4.84-2.32-9.52-4.8-14.12-7.52-0.84-0.44-1.68-0.96-2.48-1.44-42.52 19.6-77.040 20.44-97.92 2.24-27.12-24-24.52-76 6.84-140 0.4-0.84 0.84-1.68 1.28-2.56v0q-0.36-3.44-0.6-6.84c-5.68-2.080-10.96-4.28-16-6.56-26.92-12.68-41.24-28.4-41.8-46.28-0.72-22.8 21.24-43.56 62.64-60l2.36-2.12c-8-44.92-1.56-76.76 19.2-89.32 5.691-3.423 12.561-5.448 19.903-5.448 0.273 0 0.546 0.003 0.818 0.008l-0.041-0.001c17.2 0 38.080 8.88 60.52 25.040 12.27-5.945 26.545-10.822 41.474-13.911l1.206-0.209c5.28-1.080 10.6-1.92 16-2.52v0c6.315-0.764 13.628-1.2 21.042-1.2 0.041 0 0.083 0 0.124 0h-0.006c4.68 0 9.36 0 13.96 0.52 24.56-12 46.56-18.2 65.080-18.2 0.695-0.030 1.511-0.048 2.33-0.048 13.877 0 26.596 4.959 36.481 13.202l-0.091-0.074c15.2 13.36 20.8 35.28 17.88 62.44 1.76 1.8 3.48 3.68 5.16 5.56 3.56 4 6.96 8 10.16 12.48 0.225 0.25 0.435 0.524 0.624 0.814l0.016 0.026c46.8 13.8 72.88 34.4 73.64 58.080 0.68 17.72-11.92 34-36.84 48.080zM733.2 549.12c6.92-16.56-1.16-38.16-20-60.88-4.509 34-17.536 64.317-36.851 89.571l0.331-0.451c29.72-2.84 50.080-12.84 56.52-28.24zM698.36 472.6v0c-1.44-1.4-2.92-2.8-4.48-4-4 1.68-8 3.32-12.52 4.92-23.892 8.674-52.086 15.769-81.2 20.032l-2.4 0.288c18.040 39.28 29.52 76 33.64 106.76 38.866-30.092 64.357-75.847 66.944-127.634l0.016-0.406zM596.68 477.6c29.932-4.392 56.675-11.162 82.28-20.324l-2.96 0.924 4.4-1.64c-14.366-11.634-30.399-22.772-47.226-32.707l-1.854-1.013c-11.443 21.085-22.918 38.973-35.527 55.971l0.887-1.251zM617.16 414.96c-11.962-6.68-26.978-13.972-42.388-20.518l-3.292-1.242c-14.48-6.040-28.96-11.36-43.28-16 11.565 15.171 23.442 32.553 34.438 50.532l1.562 2.748q11.040 18.24 20.44 36c10.919-14.791 21.691-31.644 31.335-49.205l1.185-2.355zM602.6 665.92c9.080-5.48 14.040-18.52 14.6-37.12-20.141 11.394-43.76 19.283-68.903 22.16l-0.857 0.080c25.16 17.56 46.84 19.84 55.16 14.84zM526.32 636.24c0.052 0 0.115 0 0.177 0 33.308 0 64.397-9.501 90.704-25.94l-0.721 0.42c-2.84-29.92-14.16-69.44-34.76-113.52q-8 10-16.8 20c-37.36 42.56-79.080 77.4-118.68 99.24 23.113 12.447 50.581 19.76 79.757 19.76 0.113 0 0.227 0 0.34 0h-0.018zM430.32 606.8c40.36-20.44 84-56 122.72-100 2.48-2.8 4.88-5.64 7.28-8.48-13.48 1.24-27.32 2.080-41.32 2.52-61.44 1.92-119.56-4-163.68-17.080 6.141 51.42 34.135 95.279 74.282 122.616l0.598 0.384zM329.76 389.36c-21.24 11.2-33.12 23.64-32.76 35.4 0.4 12.6 15.36 25.48 41.12 36 0.15-8.309 0.828-16.32 2.004-24.167l-0.124 1.007c-10-17.6-13.44-33.92-10.24-48.24zM341.76 615.36c14.16 12.48 40 12 71.68-0.92-33.253-25.134-57.686-60.379-68.812-101.116l-0.308-1.324c-20.32 48.36-21.48 86.84-2.64 103.36zM350.24 382.12c-1.225 1.676-2.311 3.584-3.17 5.613l-0.070 0.187c-1.494 3.791-2.36 8.182-2.36 12.775 0 3.426 0.482 6.74 1.382 9.878l-0.062-0.252c2.231-7.635 4.532-13.915 7.182-20.008l-0.422 1.088c-0.96-3.12-1.8-6.2-2.56-9.24zM354.24 463.92c0 0.84 0 1.72 0 2.56 1.76 0.56 3.52 1.12 5.36 1.64 42.56 12.52 99 18.4 158.88 16.52 18.96-0.6 37.52-1.96 55.36-4-6.88-13.6-14.6-27.56-23.2-41.76-15.88-26.224-31.887-48.752-49.348-70.041l0.828 1.041c-23.655-6.486-50.917-10.48-79.022-11.035l-0.338-0.005h-0.88c-0.512-0.006-1.118-0.009-1.724-0.009-11.491 0-22.712 1.154-33.554 3.351l1.078-0.183c-20.985 28.097-33.6 63.512-33.6 101.874 0 0.044 0 0.088 0 0.133v-0.007zM364 370.4l-0.24-1c-0.36 0.56-0.68 1.16-1 1.72zM373.64 287.6c-13.64 8.4-18.12 32.4-12.92 66.44 4.98-2.42 10.827-4.556 16.91-6.1l0.65-0.14c14.449-18.271 31.758-33.529 51.385-45.324l0.855-0.476c-24.56-16.4-45-21.64-57.040-14.4zM444.88 312.32c-15.922 8.666-29.582 19.074-41.445 31.244l-0.035 0.036c5.84-0.52 12-0.76 18.48-0.76h1c21.985 0.312 43.219 2.729 63.748 7.059l-2.148-0.379c-12.225-13.353-25.214-25.518-39.081-36.634l-0.679-0.526zM526.48 291.68c-5.32 0-10.6 0.24-15.8 0.72s-10.84 1.24-16 2.24c-12.773 2.448-24.045 5.921-34.756 10.46l1.116-0.42c18.391 15.631 34.865 32.333 49.782 50.37l0.538 0.67c26.364 7.032 48.519 14.777 69.921 23.945l-3.321-1.265c16.48 6.88 32 14.32 46.76 22.16 9.087-17.655 16.289-38.131 20.553-59.664l0.247-1.496c-30.78-29.535-72.647-47.721-118.761-47.721-0.154 0-0.308 0-0.462 0.001h0.024zM633.68 283.12c-12.92-11.36-35.32-12-63.28-2.28 29.623 7.254 55.422 20.682 77.041 38.911l-0.281-0.231c-0.28-15.88-4.6-28.44-13.64-36.36zM658.68 353.64c-5.224 20.932-12.074 39.189-20.708 56.397l0.708-1.557c22.071 12.774 41.13 26.316 58.823 41.412l-0.543-0.452 1.12-0.52c-3.282-36.664-17.685-69.451-39.766-95.53l0.206 0.25zM691.84 374c10.715 19.166 18.285 41.574 21.343 65.394l0.097 0.926c14.72-9.6 22.72-20 22.44-29.32-0.6-13.080-16.6-26.4-44.040-36.96zM707.52 657.68l-58.8-50.8c-4 3.52-8.36 6.88-12.8 10.040l61.12 52.84c1.972-2.857 3.956-5.348 6.093-7.699l-0.053 0.059c1.416-1.574 2.866-3.024 4.387-4.393l0.053-0.047zM785.84 470.96c0.003-2.828 0.25-5.597 0.722-8.288l-0.042 0.288h-72v1.040c0 0.76 0 1.56 0 2.32 4 4.24 8 8.52 11.32 12.72h60.64c-0.408-2.35-0.641-5.056-0.641-7.817 0-0.093 0-0.185 0.001-0.278v0.014zM445.68 634.080c-4.84-2.32-9.52-4.8-14.12-7.52l-37.24 70.92c5.326 2.028 9.881 4.977 13.688 8.688l-0.008-0.008zM718.2 310.28c-2.404-1.58-4.498-3.293-6.399-5.199l-0.001-0.001c-1.82-1.815-3.465-3.803-4.91-5.939l-0.090-0.141-39.68 40c3.56 4 6.96 8 10.16 12.48zM339.24 485.040v0q-0.36-3.44-0.6-6.84c-5.68-2.080-10.96-4.28-16-6.56h-98c0.514 2.405 0.808 5.168 0.808 8s-0.294 5.595-0.854 8.26l0.046-0.26h113.32c0.4-0.92 0.84-1.76 1.28-2.6zM832 517.16c-22.65-0.058-41.474-16.364-45.436-37.875l-0.044-0.285c-0.433-2.405-0.68-5.174-0.68-8s0.247-5.595 0.722-8.285l-0.042 0.285c3.944-21.823 22.795-38.16 45.461-38.16 25.493 0 46.16 20.667 46.16 46.16 0 25.487-20.656 46.149-46.14 46.16h-0.001zM832 440.84c-13.799 0.004-25.428 9.287-28.989 21.948l-0.051 0.212c-0.711 2.397-1.12 5.151-1.12 8s0.409 5.603 1.172 8.206l-0.052-0.206c3.641 12.858 15.273 22.12 29.069 22.12 16.657 0 30.16-13.503 30.16-30.16s-13.503-30.16-30.16-30.16c-0.010 0-0.020 0-0.030 0h0.002zM804.64 754.48c-12.606 13.87-30.719 22.542-50.857 22.542-37.909 0-68.64-30.731-68.64-68.64 0-14.422 4.448-27.806 12.047-38.854l-0.151 0.232c1.972-2.857 3.956-5.348 6.093-7.699l-0.053 0.059c1.416-1.574 2.866-3.024 4.387-4.393l0.053-0.047c12.153-11.107 28.401-17.911 46.238-17.911 37.909 0 68.64 30.731 68.64 68.64 0 17.758-6.743 33.941-17.809 46.127l0.051-0.057zM789.24 669.36c-9.262-8.483-21.654-13.68-35.26-13.68-0.035 0-0.071 0-0.106 0h0.006c-13.063 0.014-25.015 4.762-34.234 12.622l0.074-0.062c-1.736 1.464-3.303 2.981-4.762 4.598l-0.038 0.042c-2 2.212-3.858 4.643-5.508 7.219l-0.132 0.221c-5.054 7.938-8.055 17.611-8.055 27.985 0 29.072 23.568 52.64 52.64 52.64s52.64-23.568 52.64-52.64c0-15.414-6.625-29.281-17.183-38.908l-0.042-0.037zM408.24 762.84c-7.251 7.312-17.3 11.839-28.407 11.839-22.091 0-40-17.909-40-40s17.909-40 40-40c10.908 0 20.797 4.367 28.013 11.447l0.394 0.394c7.213 7.204 11.674 17.161 11.674 28.16s-4.462 20.956-11.674 28.16v0zM363.24 717.84c-4.266 4.33-6.9 10.277-6.9 16.84s2.634 12.51 6.903 16.843l-0.003-0.003c4.356 4.421 10.408 7.16 17.1 7.16 13.255 0 24-10.745 24-24s-10.745-24-24-24c-6.692 0-12.744 2.739-17.097 7.157l-0.003 0.003zM768 305.12c-7.204 7.213-17.161 11.674-28.16 11.674s-20.956-4.462-28.16-11.674v0c-1.82-1.815-3.465-3.803-4.91-5.939l-0.090-0.141c-3.759-5.983-5.988-13.257-5.988-21.052 0-22.091 17.909-40 40-40 10.568 0 20.179 4.099 27.33 10.793l-0.022-0.021c7.177 7.228 11.612 17.186 11.612 28.18s-4.435 20.952-11.614 28.182l0.002-0.002zM756.8 260c-4.326-4.243-10.257-6.862-16.801-6.862-13.178 0-23.875 10.621-23.999 23.77v0.012c0 0.025 0 0.055 0 0.085 0 3.711 0.871 7.219 2.421 10.33l-0.061-0.135c1.201 2.542 2.758 4.713 4.637 6.557l0.003 0.003c1.903 1.921 4.14 3.506 6.619 4.661l0.141 0.059c2.949 1.393 6.406 2.207 10.053 2.207 6.576 0 12.535-2.645 16.87-6.929l-0.002 0.002c4.325-4.34 7-10.328 7-16.941 0-6.553-2.626-12.492-6.883-16.823l0.003 0.003zM224.64 487.56c-3.794 18.13-19.468 31.613-38.359 31.999l-0.041 0.001h-0.64c-0.077 0.001-0.169 0.001-0.26 0.001-22.092 0-40.001-17.909-40.001-40.001 0-22 17.761-39.853 39.727-40h0.614c19.164 0.115 35.124 13.688 38.914 31.74l0.046 0.26c0.514 2.405 0.808 5.168 0.808 8s-0.294 5.595-0.854 8.26l0.046-0.26zM185.68 455.56h-0.36c-13.118 0.18-23.682 10.857-23.682 24 0 13.256 10.746 24.002 24.002 24.002 0.113 0 0.225-0.001 0.337-0.002h-0.017c10.151-0.257 18.714-6.779 21.987-15.833l0.053-0.167c0.888-2.38 1.402-5.13 1.402-8s-0.514-5.62-1.455-8.163l0.053 0.163c-3.359-9.306-12.056-15.864-22.304-16h-0.016z" />
<glyph unicode="&#xe929;" d="M272 312c72.673 0.053 136.931 36.033 175.981 91.137l0.451 0.671c-46.413 42.278-108.399 68.169-176.432 68.169s-130.019-25.891-176.641-68.358l0.209 0.188c39.501-55.775 103.759-91.755 176.423-91.808h0.009z" />
<glyph unicode="&#xe92a;" d="M272 264c-85.205 0.072-160.933 40.581-209.040 103.37l-0.464 0.63c-33.803-43.893-54.176-99.65-54.176-160.164 0-145.715 118.125-263.84 263.84-263.84s263.84 118.125 263.84 263.84c0 0.058 0 0.115 0 0.173v-0.009c-0.022 60.508-20.521 116.223-54.942 160.598l0.446-0.598c-48.571-63.419-124.299-103.928-209.492-104h-0.012zM390.784 89.2c-30.422-30.35-72.412-49.117-118.784-49.117s-88.362 18.767-118.787 49.12l0.003-0.003c-4.352 4.35-7.044 10.361-7.044 17 0 13.275 10.761 24.036 24.036 24.036 6.635 0 12.643-2.689 16.992-7.036v0c21.729-21.682 51.723-35.089 84.848-35.089s63.119 13.407 84.85 35.092l-0.002-0.002c4.37 4.52 10.489 7.327 17.263 7.327 13.255 0 24-10.745 24-24 0-6.774-2.806-12.893-7.32-17.256l-0.007-0.006z" />
<glyph unicode="&#xe92b;" d="M320 744h480c13.255 0 24 10.745 24 24s-10.745 24-24 24v0h-480c-13.255 0-24-10.745-24-24s10.745-24 24-24v0z" />
<glyph unicode="&#xe92c;" d="M824 608c0 13.255-10.745 24-24 24v0h-480c-13.255 0-24-10.745-24-24s10.745-24 24-24v0h480c13.255 0 24 10.745 24 24v0z" />
<glyph unicode="&#xe92d;" d="M800 472h-362.496c22.403-14.154 41.814-30.005 59.113-47.91l0.087-0.090h303.296c13.255 0 24 10.745 24 24s-10.745 24-24 24v0z" />
<glyph unicode="&#xe92e;" d="M800 312h-234.208c4.991-13.384 9.455-29.496 12.593-46.078l0.303-1.922h221.312c13.255 0 24 10.745 24 24s-10.745 24-24 24v0z" />
<glyph unicode="&#xe92f;" d="M800 152h-221.312c-3.441-18.503-7.905-34.615-13.581-50.144l0.685 2.144h234.208c13.255 0 24 10.745 24 24s-10.745 24-24 24v0z" />
<glyph unicode="&#xe930;" d="M960 952h-704c-30.928 0-56-25.072-56-56v0-384.72c13.77 3.439 30.152 6.099 46.908 7.434l1.092 0.070v377.216c0 4.418 3.582 8 8 8v0h616v-912h-375.376c-17.364-17.992-36.749-33.843-57.844-47.242l-1.276-0.758h522.496c30.928 0 56 25.072 56 56v0 896c0 30.928-25.072 56-56 56v0zM968 0c0-4.418-3.582-8-8-8v0h-40v912h40c4.418 0 8-3.582 8-8v0z" />
<glyph unicode="&#xe931;" glyph-name="App-design" d="M917.333-64h-810.667c-58.881 0.073-106.594 47.786-106.667 106.66v0.007c0 11.782 9.551 21.333 21.333 21.333v0h981.333c11.782 0 21.333-9.551 21.333-21.333v0c-0.073-58.881-47.786-106.594-106.66-106.667h-0.007zM46.315 21.333c9.085-25.051 32.661-42.632 60.348-42.667h810.671c27.691 0.035 51.267 17.616 60.21 42.221l0.142 0.446zM405.333 42.667h213.333v-42.667h-213.333v42.667zM981.333 42.667h-42.667v618.667c0 11.782-9.551 21.333-21.333 21.333v0h-85.333v42.667h85.333c35.346 0 64-28.654 64-64v0zM85.333 42.667h-42.667v618.667c0 35.346 28.654 64 64 64v0h149.333v-42.667h-149.333c-11.782 0-21.333-9.551-21.333-21.333v0zM128 192h42.667v-42.667h-42.667v42.667zM213.333 192h597.333v-42.667h-597.333v42.667zM853.333 192h42.667v-42.667h-42.667v42.667zM277.333 170.667h-42.667v725.333c0 35.346 28.654 64 64 64v0h426.667c35.346 0 64-28.654 64-64v0-128h-42.667v128c0 11.782-9.551 21.333-21.333 21.333v0h-426.667c-11.782 0-21.333-9.551-21.333-21.333v0zM256 832h512v-42.667h-512v42.667zM448 896h128v-42.667h-128v42.667zM568.491 422.912c-5.89 0.001-11.223 2.39-15.083 6.251l-60.245 60.224c-3.859 3.86-6.246 9.193-6.246 15.083s2.387 11.222 6.246 15.083l421.696 421.717c11.729 11.222 27.666 18.129 45.216 18.129s33.487-6.908 45.24-18.152l-0.024 0.023c11.552-11.577 18.696-27.557 18.696-45.205s-7.143-33.629-18.697-45.206l-421.716-421.695c-3.86-3.861-9.192-6.249-15.082-6.251v0zM538.411 504.469l30.080-30.059 406.613 406.656c3.834 3.856 6.204 9.171 6.204 15.040s-2.37 11.184-6.205 15.041l0.001-0.001c-3.897 3.734-9.195 6.032-15.029 6.032s-11.132-2.299-15.037-6.040l0.008 0.007zM448 362.667c-0.003 0-0.006 0-0.010 0-11.782 0-21.333 9.551-21.333 21.333 0 3.476 0.831 6.758 2.306 9.657l-0.056-0.121 60.245 120.491 38.165-19.093-31.616-63.232 63.232 31.637 19.2-38.165-120.597-60.373c-2.718-1.347-5.918-2.135-9.302-2.135-0.082 0-0.165 0-0.247 0.001h0.013zM794.382 790.633l30.17 30.17 60.249-60.249-30.17-30.17-60.249 60.249zM746.667 640h42.667v-469.333h-42.667v469.333zM320 405.333h64v-42.667h-64v42.667zM554.667 405.333h149.333v-42.667h-149.333v42.667zM320 298.667h384v-42.667h-384v42.667zM320 746.667h42.667v-42.667h-42.667v42.667zM405.333 746.667h42.667v-42.667h-42.667v42.667zM320 661.333h42.667v-42.667h-42.667v42.667z" />
<glyph unicode="&#xe932;" glyph-name="affordable" d="M320 896h42.667v-42.667h-42.667v42.667zM320 42.667h42.667v-42.667h-42.667v42.667zM469.333 42.667h42.667v-42.667h-42.667v42.667zM170.667 42.667h42.667v-42.667h-42.667v42.667zM618.667-64h-554.667c-35.346 0-64 28.654-64 64v0 896c0 35.346 28.654 64 64 64v0h554.667c35.346 0 64-28.654 64-64v0-149.333h-42.667v149.333c0 11.782-9.551 21.333-21.333 21.333v0h-554.667c-11.782 0-21.333-9.551-21.333-21.333v0-896c0-11.782 9.551-21.333 21.333-21.333v0h554.667c11.782 0 21.333 9.551 21.333 21.333v0 192h42.667v-192c0-35.346-28.654-64-64-64v0zM384 64h-320c-35.346 0-64 28.654-64 64v0 640c0 35.346 28.654 64 64 64v0h554.667c35.346 0 64-28.654 64-64v0h-42.667c0 11.782-9.551 21.333-21.333 21.333v0h-554.667c-11.782 0-21.333-9.551-21.333-21.333v0-640c0-11.782 9.551-21.333 21.333-21.333v0h320zM618.667 64h-85.333v42.667h85.333c11.782 0 21.333 9.551 21.333 21.333v0h42.667c0-35.346-28.654-64-64-64v0zM725.333 320c-47.128 0-85.333 38.205-85.333 85.333v0h42.667c0-23.564 19.103-42.667 42.667-42.667s42.667 19.103 42.667 42.667c0 23.564-19.103 42.667-42.667 42.667v0c-47.128 0-85.333 38.205-85.333 85.333s38.205 85.333 85.333 85.333c47.128 0 85.333-38.205 85.333-85.333v0h-42.667c0 23.564-19.103 42.667-42.667 42.667s-42.667-19.103-42.667-42.667c0-23.564 19.103-42.667 42.667-42.667v0c47.128 0 85.333-38.205 85.333-85.333s-38.205-85.333-85.333-85.333v0zM704 341.333h42.667v-64h-42.667v64zM704 661.333h42.667v-64h-42.667v64zM853.333 490.667h42.667v-42.667h-42.667v42.667zM554.667 490.667h42.667v-42.667h-42.667v42.667zM448 64c-0.993-0.146-2.14-0.23-3.307-0.23s-2.313 0.084-3.435 0.245l0.128-0.015c-8.631 2.864-14.745 10.863-14.745 20.291 0 0.367 0.009 0.731 0.028 1.094l-0.002-0.051v384c0 164.949 133.718 298.667 298.667 298.667s298.667-133.718 298.667-298.667c0-164.949-133.718-298.667-298.667-298.667v0c-0.158 0-0.345 0-0.533 0-57.977 0-112.056 16.686-157.697 45.518l1.217-0.718-103.040-142.72c-3.926-5.328-10.176-8.747-17.225-8.747-0.019 0-0.039 0-0.058 0h0.003zM725.333 725.333c-141.385 0-256-114.615-256-256v0-318.080l76.587 106.667c3.264 4.462 8.133 7.583 13.742 8.516l0.124 0.017c0.971 0.157 2.091 0.246 3.231 0.246 4.72 0 9.082-1.533 12.615-4.128l-0.059 0.042c41.752-30.789 94.218-49.277 151.002-49.277 141.385 0 256 114.615 256 256s-114.615 256-256 256c-0.437 0-0.873-0.001-1.309-0.003h0.067zM277.333 490.667h-85.333c-35.346 0-64 28.654-64 64v0 85.333c0 35.346 28.654 64 64 64v0h85.333c35.346 0 64-28.654 64-64v0-85.333c0-35.346-28.654-64-64-64v0zM192 661.333c-11.782 0-21.333-9.551-21.333-21.333v0-85.333c0-11.782 9.551-21.333 21.333-21.333v0h85.333c11.782 0 21.333 9.551 21.333 21.333v0 85.333c0 11.782-9.551 21.333-21.333 21.333v0zM277.333 192h-85.333c-35.346 0-64 28.654-64 64v0 85.333c0 35.346 28.654 64 64 64v0h85.333c35.346 0 64-28.654 64-64v0-85.333c0-35.346-28.654-64-64-64v0zM192 362.667c-11.782 0-21.333-9.551-21.333-21.333v0-85.333c0-11.782 9.551-21.333 21.333-21.333v0h85.333c11.782 0 21.333 9.551 21.333 21.333v0 85.333c0 11.782-9.551 21.333-21.333 21.333v0z" />
<glyph unicode="&#xe933;" d="M864 896v-896c0-26.51-21.49-48-48-48v0h-544c-26.51 0-48 21.49-48 48v0 896c0 26.51 21.49 48 48 48v0h544c26.51 0 48-21.49 48-48v0zM800 32v816c0.002 0.101 0.004 0.22 0.004 0.34 0 8.651-7.013 15.664-15.664 15.664-0.119 0-0.239-0.001-0.357-0.004h-127.982s-16-32-32-32h-160c-16 0-32 32-32 32h-128c-0.101 0.002-0.22 0.004-0.34 0.004-8.651 0-15.664-7.013-15.664-15.664 0-0.119 0.001-0.239 0.004-0.357v0.018-816c-0.002-0.101-0.004-0.22-0.004-0.34 0-8.651 7.013-15.664 15.664-15.664 0.119 0 0.239 0.001 0.357 0.004h479.982c0.101-0.002 0.22-0.004 0.34-0.004 8.651 0 15.664 7.013 15.664 15.664 0 0.119-0.001 0.239-0.004 0.357v-0.018z" />
<glyph unicode="&#xe934;" d="M800 848v-816c0.002-0.101 0.004-0.22 0.004-0.34 0-8.651-7.013-15.664-15.664-15.664-0.119 0-0.239 0.001-0.357 0.004h-479.982c-0.101-0.002-0.22-0.004-0.34-0.004-8.651 0-15.664 7.013-15.664 15.664 0 0.119 0.001 0.239 0.004 0.357v-0.018 816c-0.002 0.101-0.004 0.22-0.004 0.34 0 8.651 7.013 15.664 15.664 15.664 0.119 0 0.239-0.001 0.357-0.004h127.982s16-32 32-32h160c16 0 32 32 32 32h128c0.101 0.002 0.22 0.004 0.34 0.004 8.651 0 15.664-7.013 15.664-15.664 0-0.119-0.001-0.239-0.004-0.357v0.018z" />
<glyph unicode="&#xe935;" d="M682.576 272h106.848c5.841 0 10.576-4.735 10.576-10.576v-26.848c0-5.841-4.735-10.576-10.576-10.576h-106.848c-5.841 0-10.576 4.735-10.576 10.576v26.848c0 5.841 4.735 10.576 10.576 10.576z" />
<glyph unicode="&#xe936;" d="M608 400l16 32-16 32-69.12 9.28c-4.61 19.089-11.766 35.902-21.226 51.136l0.426-0.736 42.24 55.36-11.36 33.92-33.92 11.36-55.36-42.24c-14.498 9.034-31.311 16.19-49.217 20.556l-1.183 0.244-9.28 69.12-32 16-32-16-9.28-69.12c-19.089-4.61-35.902-11.766-51.136-21.226l0.736 0.426-52.32 39.92v-380l52.32 39.92c14.498-9.034 31.311-16.19 49.217-20.556l1.183-0.244 9.28-69.12 32-16 32 16 9.28 69.12c19.089 4.61 35.902 11.766 51.136 21.226l-0.736-0.426 55.36-42.24 33.92 11.36 11.36 33.92-42.24 55.36c9.034 14.498 16.19 31.311 20.556 49.217l0.244 1.183zM368 336c-53.019 0-96 42.981-96 96s42.981 96 96 96c53.019 0 96-42.981 96-96v0c0-53.019-42.981-96-96-96v0z" />
<glyph unicode="&#xe937;" d="M729.6 688c-121.6 0-121.6 32-243.2 32-104.448 0-119.44-23.52-198.4-30.208v-112c78.96 6.688 93.952 30.208 198.304 30.208 121.6 0 121.6-32 243.2-32 1.253-0.012 2.734-0.019 4.216-0.019 23.386 0 46.363 1.752 68.806 5.132l-2.526-0.313v112c-19.916-3.067-42.891-4.819-66.274-4.819-1.451 0-2.899 0.007-4.347 0.020l0.221-0.002z" />
<glyph unicode="&#xe938;" d="M288 848v-158.208c78.96 6.688 93.952 30.208 198.304 30.208 121.6 0 121.6-32 243.2-32 1.253-0.012 2.734-0.019 4.216-0.019 23.386 0 46.363 1.752 68.806 5.132l-2.526-0.313v155.2c0.002 0.101 0.004 0.22 0.004 0.34 0 8.651-7.013 15.664-15.664 15.664-0.119 0-0.239-0.001-0.357-0.004h-127.982s-16-32-32-32h-160c-16 0-32 32-32 32h-128c-0.101 0.002-0.22 0.004-0.34 0.004-8.651 0-15.664-7.013-15.664-15.664 0-0.119 0.001-0.239 0.004-0.357v0.018z" />
<glyph unicode="&#xe939;" d="M640 496h320v-224h-320v224z" />
<glyph unicode="&#xe93a;" d="M640 624h320v-128h-320v128z" />
<glyph unicode="&#xe93b;" d="M688 448h224v-128h-224v128z" />
<glyph unicode="&#xe93c;" d="M560 480l16-32-16-32-69.12-9.28c-4.61-19.089-11.766-35.902-21.226-51.136l0.426 0.736 42.24-55.36-11.36-33.92-33.92-11.36-55.36 42.24c-14.498-9.034-31.311-16.19-49.217-20.556l-1.183-0.244-9.28-69.12-32-16-32 16-9.28 69.12c-19.089 4.61-35.902 11.766-51.136 21.226l0.736-0.426-55.36-42.24-33.92 11.36-11.36 33.92 42.24 55.36c-9.034 14.498-16.19 31.311-20.556 49.217l-0.244 1.183-69.12 9.28-16 32 16 32 69.12 9.28c4.61 19.089 11.766 35.902 21.226 51.136l-0.426-0.736-42.24 55.36 11.36 33.92 33.92 11.36 55.36-42.24c14.498 9.034 31.311 16.19 49.217 20.556l1.183 0.244 9.28 69.12 32 16 32-16 9.28-69.12c19.089-4.61 35.902-11.766 51.136-21.226l-0.736 0.426 55.36 42.24 33.92-11.36 11.36-33.92-42.24-55.36c9.034-14.498 16.19-31.311 20.556-49.217l0.244-1.183zM416 448c0 53.019-42.981 96-96 96s-96-42.981-96-96c0-53.019 42.981-96 96-96v0c53.019 0 96 42.981 96 96v0z" />
<glyph unicode="&#xe93d;" d="M688 576h32v-32h-32v32z" />
<glyph unicode="&#xe93e;" d="M752 576h32v-32h-32v32z" />
<glyph unicode="&#xe93f;" d="M136.4 392.336c4.096-13.385 8.985-24.907 14.9-35.79l-0.5 1.006-35.84-46.912c-2.058-2.665-3.299-6.053-3.299-9.731 0-1.808 0.3-3.545 0.852-5.166l-0.033 0.113 11.328-33.936c1.63-4.784 5.328-8.482 9.999-10.079l0.113-0.033 33.936-11.328c1.508-0.519 3.246-0.819 5.053-0.819 3.678 0 7.065 1.241 9.768 3.327l-0.037-0.028 46.912 35.872c9.877-5.415 21.399-10.304 33.429-14.038l1.355-0.362 7.808-58.512c0.731-5.371 4.037-9.837 8.613-12.166l0.091-0.042 32-16c2.084-1.064 4.545-1.687 7.152-1.687s5.068 0.623 7.243 1.729l-0.091-0.042 32 16c4.667 2.371 7.973 6.837 8.695 12.125l0.009 0.083 7.808 58.512c13.385 4.096 24.907 8.985 35.79 14.9l-1.006-0.5 46.912-35.872c2.665-2.058 6.053-3.299 9.731-3.299 1.808 0 3.545 0.3 5.166 0.852l-0.113-0.033 33.936 11.328c4.784 1.63 8.482 5.328 10.079 9.999l0.033 0.113 11.328 33.936c0.519 1.508 0.819 3.246 0.819 5.053 0 3.678-1.241 7.065-3.327 9.768l0.028-0.037-35.872 46.912c5.415 9.877 10.304 21.399 14.038 33.429l0.362 1.355 58.512 7.808c5.371 0.731 9.837 4.037 12.166 8.613l0.042 0.091 16 32c1.064 2.084 1.687 4.545 1.687 7.152s-0.623 5.068-1.729 7.243l0.042-0.091-16 32c-2.371 4.667-6.837 7.973-12.125 8.695l-0.083 0.009-58.512 7.808c-4.096 13.385-8.985 24.907-14.9 35.79l0.5-1.006 35.872 46.912c2.058 2.665 3.299 6.053 3.299 9.731 0 1.808-0.3 3.545-0.852 5.166l0.033-0.113-11.328 33.936c-1.63 4.784-5.328 8.482-9.999 10.079l-0.113 0.033-33.936 11.328c-1.508 0.519-3.246 0.819-5.053 0.819-3.678 0-7.065-1.241-9.768-3.327l0.037 0.028-46.912-35.872c-9.877 5.415-21.399 10.304-33.429 14.038l-1.355 0.362-7.808 58.512c-0.731 5.371-4.037 9.837-8.613 12.166l-0.091 0.042-32 16c-2.084 1.064-4.545 1.687-7.152 1.687s-5.068-0.623-7.243-1.729l0.091 0.042-32-16c-4.667-2.371-7.973-6.837-8.695-12.125l-0.009-0.083-7.808-58.512c-13.385-4.096-24.907-8.985-35.79-14.9l1.006 0.5-46.912 35.872c-2.665 2.058-6.053 3.299-9.731 3.299-1.808 0-3.545-0.3-5.166-0.852l0.113 0.033-33.936-11.328c-4.784-1.63-8.482-5.328-10.079-9.999l-0.033-0.113-11.328-33.936c-0.519-1.508-0.819-3.246-0.819-5.053 0-3.678 1.241-7.065 3.327-9.768l-0.028 0.037 35.872-46.912c-5.415-9.877-10.304-21.399-14.038-33.429l-0.362-1.355-58.512-7.808c-5.371-0.731-9.837-4.037-12.166-8.613l-0.042-0.091-16-32c-1.064-2.084-1.687-4.545-1.687-7.152s0.623-5.068 1.729-7.243l-0.042 0.091 16-32c2.371-4.667 6.837-7.973 12.125-8.695l0.083-0.009zM90.512 465.264l60.656 8c6.598 0.905 11.862 5.722 13.417 12.002l0.023 0.11c4.259 17.391 10.806 32.699 19.431 46.58l-0.391-0.676c1.477 2.378 2.353 5.263 2.353 8.352 0 3.676-1.24 7.063-3.325 9.765l0.028-0.037-37.104 48.704 6.112 18.304 18.304 6.112 48.624-37.184c2.665-2.057 6.051-3.297 9.728-3.297 3.090 0 5.975 0.876 8.42 2.392l-0.068-0.039c13.205 8.234 28.513 14.781 44.812 18.812l1.092 0.228c6.39 1.578 11.207 6.842 12.103 13.357l0.009 0.083 8 60.656 17.264 8.624 17.264-8.624 8-60.656c0.905-6.598 5.722-11.862 12.002-13.417l0.11-0.023c17.391-4.259 32.699-10.806 46.58-19.431l-0.676 0.391c2.378-1.477 5.263-2.353 8.352-2.353 3.676 0 7.063 1.24 9.765 3.325l-0.037-0.028 48.704 37.104 18.304-6.112 6.112-18.304-37.184-48.544c-2.057-2.665-3.297-6.051-3.297-9.728 0-3.090 0.876-5.975 2.392-8.42l-0.039 0.068c8.234-13.205 14.781-28.513 18.812-44.812l0.228-1.092c1.578-6.39 6.842-11.207 13.357-12.103l0.083-0.009 60.656-8 8.624-17.344-8.624-17.264-60.656-8.080c-6.598-0.905-11.862-5.722-13.417-12.002l-0.023-0.11c-4.259-17.391-10.806-32.699-19.431-46.58l0.391 0.676c-1.477-2.378-2.353-5.263-2.353-8.352 0-3.676 1.24-7.063 3.325-9.765l-0.028 0.037 37.184-48.624-6.112-18.304-18.304-6.112-48.624 37.184c-2.665 2.057-6.051 3.297-9.728 3.297-3.090 0-5.975-0.876-8.42-2.392l0.068 0.039c-13.205-8.234-28.513-14.781-44.812-18.812l-1.092-0.228c-6.39-1.578-11.207-6.842-12.103-13.357l-0.009-0.083-8-60.656-17.344-8.624-17.264 8.624-8 60.656c-0.905 6.598-5.722 11.862-12.002 13.417l-0.11 0.023c-17.391 4.259-32.699 10.806-46.58 19.431l0.676-0.391c-2.378 1.477-5.263 2.353-8.352 2.353-3.676 0-7.063-1.24-9.765-3.325l0.037 0.028-48.624-37.184-18.304 6.112-6.112 18.304 37.184 48.624c2.057 2.665 3.297 6.051 3.297 9.728 0 3.090-0.876 5.975-2.392 8.42l0.039-0.068c-8.234 13.205-14.781 28.513-18.812 44.812l-0.228 1.092c-1.578 6.39-6.842 11.207-13.357 12.103l-0.083 0.009-60.656 8.080-8.704 17.264z" />
<glyph unicode="&#xe940;" d="M320 336c61.856 0 112 50.144 112 112s-50.144 112-112 112c-61.856 0-112-50.144-112-112v0c0.073-61.827 50.174-111.927 111.993-112h0.007zM320 528c44.183 0 80-35.817 80-80s-35.817-80-80-80c-44.183 0-80 35.817-80 80v0c0.055 44.161 35.839 79.945 79.995 80h0.005z" />
<glyph unicode="&#xe941;" d="M128 688c4.418 0.001 8.417 1.792 11.312 4.688l48 48-22.624 22.624-20.688-20.688v185.376h-32v-185.376l-20.688 20.688-22.624-22.624 48-48c2.895-2.896 6.894-4.687 11.312-4.688v0z" />
<glyph unicode="&#xe942;" d="M116.688 203.312l-48-48 22.624-22.624 20.688 20.688v-185.376h32v185.376l20.688-20.688 22.624 22.624-48 48c-2.895 2.894-6.895 4.685-11.312 4.685s-8.417-1.79-11.312-4.685v0z" />
<glyph unicode="&#xe943;" d="M960 640h-80v256c0 35.346-28.654 64-64 64v0h-544c-35.346 0-64-28.654-64-64v0-224h32v224c0 17.673 14.327 32 32 32v0h544c17.673 0 32-14.327 32-32v0-256h-32v208c0.004 0.197 0.007 0.43 0.007 0.663 0 17.311-14.033 31.344-31.344 31.344-0.233 0-0.466-0.003-0.698-0.008l0.035 0.001h-128c-0.002 0-0.005 0-0.007 0-6.217 0-11.606-3.546-14.255-8.726l-0.042-0.090c-4.299-9.182-10.275-16.914-17.597-23.102l-0.099-0.082h-159.296c-7.884 6.078-14.136 13.89-18.246 22.886l-0.154 0.378c-2.705 5.226-8.071 8.736-14.256 8.736-0.017 0-0.034 0-0.051 0h-127.997c-0.197 0.004-0.43 0.007-0.663 0.007-17.311 0-31.344-14.033-31.344-31.344 0-0.233 0.003-0.466 0.008-0.698l-0.001 0.035v-112h32v112h118.592c7.808-12.912 22.64-32 41.408-32h160c18.768 0 33.6 19.088 41.408 32h118.592v-208h-144c-8.837 0-16-7.163-16-16v0-352c0-8.837 7.163-16 16-16v0h144v-224h-480v128h-32v-128c-0.004-0.197-0.007-0.43-0.007-0.663 0-17.311 14.033-31.344 31.344-31.344 0.233 0 0.466 0.003 0.698 0.008l-0.035-0.001h480c0.197-0.004 0.43-0.007 0.663-0.007 17.311 0 31.344 14.033 31.344 31.344 0 0.233-0.003 0.466-0.008 0.698l0.001-0.035v224h32v-256c0-17.673-14.327-32-32-32v0h-544c-17.673 0-32 14.327-32 32v0 224h-32v-224c0-35.346 28.654-64 64-64v0h544c35.346 0 64 28.654 64 64v0 256h80c8.837 0 16 7.163 16 16v0 352c0 8.837-7.163 16-16 16v0zM944 608v-96h-288v96zM656 288v192h288v-192z" />
<glyph unicode="&#xe944;" d="M756.688 443.312l-48-48c-2.894-2.895-4.685-6.895-4.685-11.312s1.79-8.417 4.685-11.312l48-48 22.624 22.624-36.688 36.688 36.688 36.688z" />
<glyph unicode="&#xe945;" d="M843.312 443.312l-22.624-22.624 36.688-36.688-36.688-36.688 22.624-22.624 48 48c2.894 2.895 4.685 6.895 4.685 11.312s-1.79 8.417-4.685 11.312v0z" />
<glyph unicode="&#xe946;" glyph-name="Domain" d="M992 572.656h-102.064c-20.97 62.223-54.885 115.311-98.769 158.251l-0.071 0.069c-0.136 0.232-0.224 0.48-0.376 0.696-1.223 1.791-2.805 3.248-4.651 4.292l-0.069 0.036c-71.032 68.099-167.619 110.027-274 110.027s-202.969-41.928-274.14-110.16l0.14 0.133c-1.917-1.071-3.502-2.52-4.698-4.258l-0.030-0.046c-0.152-0.216-0.24-0.464-0.376-0.696-43.955-43.010-77.87-96.097-98.021-155.537l-0.819-2.783h-102.056c-7.732 0-14-6.268-14-14v0-221.336c0-7.732 6.268-14 14-14v0h102.064c20.97-62.223 54.885-115.311 98.769-158.251l0.071-0.069c0.136-0.232 0.224-0.48 0.376-0.696 1.228-1.777 2.809-3.223 4.65-4.26l0.070-0.036c71.030-68.103 167.618-110.033 274-110.033s202.97 41.931 274.14 110.166l-0.14-0.133c1.916 1.073 3.5 2.522 4.698 4.258l0.030 0.046c0.152 0.216 0.24 0.464 0.376 0.696 43.955 43.010 77.87 96.097 98.021 155.537l0.819 2.783h102.056c7.732 0 14 6.268 14 14v0 221.304c0 7.732-6.268 14-14 14v0zM860.36 572.656h-205.56c-3.48 29.152-8.048 56.472-13.6 81.712 51.119 10.14 96.558 27.989 137.55 52.505l-1.95-1.081c36.113-36.775 64.579-81.191 82.74-130.587l0.82-2.549zM512 818c36.44 0 71.672-55.352 94.824-141.544-28.281-4.567-60.883-7.176-94.094-7.176-0.257 0-0.514 0-0.771 0h0.040c-0.171 0-0.373 0-0.575 0-33.266 0-65.921 2.618-97.769 7.659l3.52-0.459c23.152 86.168 58.384 141.52 94.824 141.52zM389.344 681.544c-45.577 9.007-86.117 24.338-123.065 45.272l2.025-1.056c49.485 43.511 111.196 74.27 179.332 86.533l2.268 0.339c-24.448-28.12-45.264-73.048-60.56-131.088zM574.080 812.632c70.404-12.602 132.115-43.361 182.017-87.232l-0.417 0.36c-34.921-19.877-75.458-35.208-118.432-43.783l-2.6-0.433c-15.288 58.040-36.104 102.968-60.568 131.088zM512 641.28c0.194 0 0.422 0 0.651 0 35.609 0 70.543 2.889 104.581 8.445l-3.72-0.501c5.304-23.776 9.728-49.44 13.088-76.568h-229.2c3.36 27.128 7.784 52.8 13.088 76.568 30.318-5.055 65.252-7.944 100.861-7.944 0.229 0 0.458 0 0.687 0h-0.035zM247.2 705.792c39.041-23.424 84.478-41.262 132.862-50.937l2.73-0.455c-5.544-25.24-10.112-52.56-13.6-81.712h-205.552c18.985 51.933 47.451 96.338 83.614 133.159l-0.054-0.055zM46 544.656h680.92v-193.312h-680.92zM512 78c-36.44 0-71.672 55.352-94.824 141.544 28.5 4.567 61.357 7.176 94.824 7.176s66.324-2.609 98.38-7.635l-3.556 0.459c-23.152-86.192-58.384-141.544-94.824-141.544zM634.664 214.456c45.574-9.008 86.111-24.339 123.057-45.272l-2.025 1.056c-49.485-43.511-111.196-74.27-179.332-86.533l-2.268-0.339c24.448 28.12 45.264 73.048 60.568 131.088zM449.92 83.368c-70.404 12.602-132.115 43.361-182.017 87.232l0.417-0.36c34.923 19.878 75.463 35.209 118.441 43.783l2.599 0.433c15.28-58.040 36.096-102.968 60.56-131.088zM512 254.72c-0.194 0-0.422 0-0.651 0-35.609 0-70.543-2.889-104.581-8.445l3.72 0.501c-5.304 23.776-9.728 49.44-13.088 76.568h229.2c-3.36-27.128-7.784-52.8-13.088-76.568-30.318 5.055-65.252 7.944-100.861 7.944-0.229 0-0.458 0-0.687 0h0.035zM163.64 323.344h205.6c3.48-29.152 8.048-56.472 13.6-81.712-51.132-10.135-96.586-27.984-137.59-52.505l1.95 1.081c-36.113 36.775-64.579 81.191-82.74 130.587l-0.82 2.549zM776.8 190.208c-39.041 23.424-84.478 41.262-132.862 50.937l-2.73 0.455c5.544 25.24 10.112 52.56 13.6 81.712h205.6c-18.999-51.935-47.481-96.34-83.66-133.157l0.052 0.053zM978 351.344h-223.080v193.312h223.080zM265.552 509.504c-1.112 0.318-2.389 0.502-3.709 0.502-6.416 0-11.821-4.326-13.459-10.219l-0.023-0.098-15.128-55.352-22.336 56.8c-2.106 5.239-7.145 8.871-13.032 8.871s-10.926-3.632-12.999-8.777l-0.033-0.094-22.328-56.8-15.128 55.352c-1.675 5.992-7.087 10.314-13.508 10.314-7.733 0-14.002-6.269-14.002-14.002 0-1.312 0.18-2.582 0.518-3.787l-0.024 0.099 26.232-96c1.678-5.991 7.090-10.312 13.512-10.312 5.887 0 10.927 3.632 12.999 8.778l0.033 0.094 24.728 62.888 24.736-62.888c2.105-5.237 7.14-8.868 13.024-8.872h0.8c6.105 0.347 11.14 4.551 12.728 10.197l0.024 0.099 26.232 96c0.315 1.107 0.496 2.378 0.496 3.692 0 6.434-4.34 11.855-10.253 13.493l-0.098 0.023zM454.152 509.504c-1.113 0.319-2.391 0.502-3.711 0.502-6.417 0-11.825-4.325-13.465-10.219l-0.023-0.098-15.12-55.352-22.336 56.8c-2.106 5.239-7.145 8.871-13.032 8.871s-10.926-3.632-12.999-8.777l-0.033-0.094-22.336-56.8-15.096 55.352c-1.675 5.992-7.087 10.314-13.508 10.314-7.733 0-14.002-6.269-14.002-14.002 0-1.312 0.18-2.582 0.518-3.787l-0.024 0.099 26.232-96c1.678-5.991 7.090-10.312 13.512-10.312 5.887 0 10.927 3.632 12.999 8.778l0.033 0.094 24.736 62.888 24.704-62.888c2.107-5.236 7.141-8.866 13.023-8.872h0.801c6.106 0.345 11.142 4.549 12.728 10.197l0.024 0.099 26.232 96c0.315 1.107 0.496 2.378 0.496 3.692 0 6.434-4.34 11.855-10.253 13.493l-0.098 0.023zM642.744 509.504c-1.113 0.319-2.391 0.502-3.711 0.502-6.417 0-11.825-4.325-13.465-10.219l-0.023-0.098-15.144-55.352-22.336 56.8c-2.106 5.239-7.145 8.871-13.032 8.871s-10.926-3.632-12.999-8.777l-0.033-0.094-22.336-56.8-15.104 55.352c-1.675 5.992-7.087 10.314-13.508 10.314-7.733 0-14.002-6.269-14.002-14.002 0-1.312 0.18-2.582 0.518-3.787l-0.024 0.099 26.24-96c1.607-5.746 6.64-9.95 12.707-10.294l0.037-0.002c0.187-0.009 0.405-0.014 0.625-0.014 5.923 0 10.999 3.624 13.132 8.775l0.035 0.094 24.736 62.888 24.736-62.888c2.101-5.234 7.13-8.864 13.007-8.872h0.761c6.106 0.345 11.142 4.549 12.728 10.197l0.024 0.099 26.232 96c0.317 1.111 0.499 2.387 0.499 3.706 0 6.415-4.315 11.823-10.201 13.478l-0.099 0.024zM851.752 520.216c-0.045 0-0.098 0-0.151 0-32.346 0-58.568-26.222-58.568-58.568s26.222-58.568 58.568-58.568c11.241 0 21.742 3.167 30.661 8.657l-0.253-0.145 34.192-34.192c2.534-2.534 6.034-4.101 9.9-4.101 7.732 0 14.001 6.268 14.001 14.001 0 3.866-1.567 7.366-4.101 9.9l-34.192 34.192c5.337 8.649 8.499 19.131 8.499 30.352 0 32.28-26.168 58.448-58.448 58.448-0.038 0-0.075 0-0.113 0h0.006zM821.184 461.648c0 16.882 13.686 30.568 30.568 30.568s30.568-13.686 30.568-30.568c0-16.882-13.686-30.568-30.568-30.568v0c-16.873 0.023-30.545 13.695-30.568 30.566v0.002z" />
<glyph unicode="&#xe947;" d="M304 16h416v-48h-416v48z" />
<glyph unicode="&#xe948;" d="M640 160l80-144h-416l80 144h256z" />
<glyph unicode="&#xe949;" d="M1008 896v-608h-992v608c0.054 17.651 14.349 31.946 31.995 32h928.005c17.651-0.054 31.946-14.349 32-31.995v-0.005z" />
<glyph unicode="&#xe94a;" d="M1008 288v-96c-0.054-17.651-14.349-31.946-31.995-32h-928.005c-17.651 0.054-31.946 14.349-32 31.995v96.005z" />
<glyph unicode="&#xe94b;" d="M976 928h-928c-17.651-0.054-31.946-14.349-32-31.995v-237.509c37.281-11.767 80.154-18.547 124.611-18.547 2.317 0 4.629 0.018 6.937 0.055l-0.348-0.004c121.6 0 121.6 32 243.2 32s121.6-32 243.2-32 121.6 32 243.2 32c1.915 0.031 4.175 0.048 6.44 0.048 44.509 0 87.434-6.785 127.797-19.377l-3.036 0.816v242.512c-0.054 17.651-14.349 31.946-31.995 32h-0.005z" />
<glyph unicode="&#xe94c;" d="M976 928h-928c-17.651-0.054-31.946-14.349-32-31.995v-125.509c37.281-11.767 80.154-18.547 124.611-18.547 2.317 0 4.629 0.018 6.937 0.055l-0.348-0.004c121.6 0 121.6 32 243.2 32s121.6-32 243.2-32 121.6 32 243.2 32c1.915 0.031 4.175 0.048 6.44 0.048 44.509 0 87.434-6.785 127.797-19.377l-3.036 0.816v130.512c-0.054 17.651-14.349 31.946-31.995 32h-0.005z" />
<glyph unicode="&#xe94d;" d="M384 160l-29.312-52.8c28.493-7.167 61.203-11.28 94.873-11.28 2.826 0 5.646 0.029 8.459 0.087l-0.42-0.007c105.6 0 119.6 24.112 201.12 30.4l-18.72 33.6z" />
<glyph unicode="&#xe94e;" d="M137.216 816h301.568c13.926 0 25.216-11.29 25.216-25.216v-317.568c0-13.926-11.29-25.216-25.216-25.216h-301.568c-13.926 0-25.216 11.29-25.216 25.216v317.568c0 13.926 11.29 25.216 25.216 25.216z" />
<glyph unicode="&#xe94f;" d="M96 720h320v-224h-320v224z" />
<glyph unicode="&#xe950;" d="M96 848h320v-128h-320v128z" />
<glyph unicode="&#xe951;" d="M144 672h224v-128h-224v128z" />
<glyph unicode="&#xe952;" d="M144 800h32v-32h-32v32z" />
<glyph unicode="&#xe953;" d="M208 800h32v-32h-32v32z" />
<glyph unicode="&#xe954;" d="M976 944h-928c-26.51 0-48-21.49-48-48v0-704c0-26.51 21.49-48 48-48v0h308.8l-66.8-120.24c-1.258-2.221-2-4.878-2-7.709 0-0.018 0-0.036 0-0.054v0.003-32h-32v-32h512v32h-32v32c0 0.007 0 0.015 0 0.023 0 2.842-0.748 5.509-2.057 7.816l0.041-0.079-66.784 120.24h308.8c26.51 0 48 21.49 48 48v0 704c0 26.51-21.49 48-48 48v0zM48 912h928c8.837 0 16-7.163 16-16v0-592h-960v592c0 8.837 7.163 16 16 16v0zM320-16v16h384v-16zM692.8 32h-361.6l62.224 112h237.168zM976 176h-928c-8.837 0-16 7.163-16 16v0 80h960v-80c0-8.837-7.163-16-16-16v0z" />
<glyph unicode="&#xe955;" d="M96 480h208v32h-192v192h288v-16h32v160c0 8.837-7.163 16-16 16v0h-320c-8.837 0-16-7.163-16-16v0-352c0-8.837 7.163-16 16-16v0zM400 832v-96h-288v96z" />
<glyph unicode="&#xe956;" d="M212.688 667.312l-48-48c-2.894-2.895-4.685-6.895-4.685-11.312s1.79-8.417 4.685-11.312l48-48 22.624 22.624-36.688 36.688 36.688 36.688z" />
<glyph unicode="&#xe957;" d="M299.312 548.688l48 48c2.894 2.895 4.685 6.895 4.685 11.312s-1.79 8.417-4.685 11.312l-48 48-22.624-22.624 36.688-36.688-36.688-36.688z" />
<glyph unicode="&#xe958;" d="M480 720h176v-32h-176v32z" />
<glyph unicode="&#xe959;" d="M480 784h96v-32h-96v32z" />
<glyph unicode="&#xe95a;" d="M400 416h-16c-17.673 0-32 14.327-32 32v0 96h-32v-96c0-35.346 28.654-64 64-64v0h16c35.346 0 64 28.654 64 64v0h-32c0-17.673-14.327-32-32-32v0z" />
<glyph unicode="&#xe95b;" d="M384 640v-32h16c17.673 0 32-14.327 32-32v0h32c0 35.346-28.654 64-64 64v0z" />
<glyph unicode="&#xe95c;" d="M576 640h-16c-35.346 0-64-28.654-64-64v0-128c0-35.346 28.654-64 64-64v0h16c35.346 0 64 28.654 64 64v0 128c0 35.346-28.654 64-64 64v0zM608 448c0-17.673-14.327-32-32-32v0h-16c-17.673 0-32 14.327-32 32v0 128c0 17.673 14.327 32 32 32v0h16c17.673 0 32-14.327 32-32v0z" />
<glyph unicode="&#xe95d;" d="M688 384h48c35.346 0 64 28.654 64 64v0 128c0 35.346-28.654 64-64 64v0h-48c-8.837 0-16-7.163-16-16v0-224c0-8.837 7.163-16 16-16v0zM704 608h32c17.673 0 32-14.327 32-32v0-128c0-17.673-14.327-32-32-32v0h-32z" />
<glyph unicode="&#xe95e;" d="M848 384h96v32h-80v80h80v32h-80v80h80v32h-96c-8.837 0-16-7.163-16-16v0-224c0-8.837 7.163-16 16-16v0z" />
<glyph unicode="&#xe95f;" d="M417.6 238.4h182.4v-107.2h-182.4v107.2z" />
<glyph unicode="&#xe960;" d="M417.6 238.4h182.4v-54.4h-182.4v54.4z" />
<glyph unicode="&#xe961;" d="M417.6 238.4h182.4v-107.2h-182.4v107.2z" />
<glyph unicode="&#xe962;" d="M206.4 652.8h603.2v-358.4h-603.2v358.4z" />
<glyph unicode="&#xe963;" d="M238.4 617.6h539.2v-283.2h-539.2v283.2z" />
<glyph unicode="&#xe964;" d="M238.4 617.6h249.6v-142.4h-249.6v142.4z" />
<glyph unicode="&#xe965;" d="M238.4 617.6h249.6v-20.8h-249.6v20.8z" />
<glyph unicode="&#xe966;" d="M238.4 403.2h249.6v-68.8h-249.6v68.8z" />
<glyph unicode="&#xe967;" d="M206.4 307.2h603.2v-81.6h-603.2v81.6z" />
<glyph unicode="&#xe968;" d="M212.8 307.2h592v-81.6h-592v81.6z" />
<glyph unicode="&#xe969;" d="M382.4 129.6h254.4" />
<glyph unicode="&#xe96a;" d="M502.4 606.4v33.6l99.2 1.6 78.4-160h49.6" />
<glyph unicode="&#xe96b;" d="M468.8 611.2h65.6v-268.8h-65.6v268.8z" />
<glyph unicode="&#xe96c;" d="M468.8 611.2h20.8v-268.8h-20.8v268.8z" />
<glyph unicode="&#xe96d;" d="M468.8 611.2h65.6v-268.8h-65.6v268.8z" />
<glyph unicode="&#xe96e;" d="M840 457.6l-136 3.2c-4.8 0-6.4 36.8-1.6 36.8l137.6 6.4c9.6 0 17.6-4.8 17.6-12.8v-22.4c0-6.4-8-11.2-17.6-11.2z" />
<glyph unicode="&#xe96f;" d="M700.8 515.2v-67.2" />
<glyph unicode="&#xe970;" d="M364.8 561.6l28.8-28.8" />
<glyph unicode="&#xe971;" d="M364.8 532.8l28.8 28.8" />
<glyph unicode="&#xe972;" d="M166.4 454.4l28.8-28.8" />
<glyph unicode="&#xe973;" d="M166.4 425.6l28.8 28.8" />
<glyph unicode="&#xe974;" d="M452.8 721.6l28.8-28.8" />
<glyph unicode="&#xe975;" d="M452.8 692.8l28.8 28.8" />
<glyph unicode="&#xe976;" d="M233.6 593.6l46.4-46.4" />
<glyph unicode="&#xe977;" d="M233.6 547.2l46.4 46.4" />
<glyph unicode="&#xe978;" d="M286.4 420.8l46.4-46.4" />
<glyph unicode="&#xe979;" d="M286.4 374.4l46.4 46.4" />
<glyph unicode="&#xe97a;" d="M257.6 766.4l59.2-59.2" />
<glyph unicode="&#xe97b;" d="M257.6 707.2l59.2 59.2" />
</font>
</defs>
</svg>
